<?xml version="1.0" encoding="utf-8"?>
<!-- Generator: Adobe Illustrator 19.1.1, SVG Export Plug-In . SVG Version: 6.00 Build 0)  -->
<svg version="1.1" id="Layer_1" xmlns="http://www.w3.org/2000/svg" xmlns:xlink="http://www.w3.org/1999/xlink" x="0px" y="0px"
	 viewBox="0 0 150 77" style="enable-background:new 0 0 150 77;" xml:space="preserve">
<style type="text/css">
	.st0{fill:#0D858F;}
	.st1{fill:#FFFFFF;}
	.st2{fill:#AAD4D8;}
</style>
<g>
	<path class="st0" d="M6.7,0C6.7,0,0,0,0,6.6v63.7c0,0,0,6.6,6.7,6.6h136.7c0,0,6.7,0,6.7-6.6V6.6c0,0,0-6.6-6.7-6.6H6.7z"/>
	<path class="st1" d="M123,59.1h9.9V0H123v27.8h-0.1c-2.2-2.7-5.8-4.3-9.4-4.3c-9.9,0-15.8,9.1-15.8,18.2c0,9.3,5.8,18.5,15.9,18.5
		c3.6,0,7.2-1.5,9.3-4.3h0.1V59.1z"/>
	<path class="st1" d="M67.1,24.7h-9.8V77h9.8V55.9h0.1c2,2.8,5.7,4.3,9.2,4.3c10.2,0,16-9.1,16-18.5c0-9.1-6-18.2-15.8-18.2
		c-3.7,0-7.3,1.6-9.6,4.3V24.7z"/>
	<path class="st1" d="M39.8,59.1h9.9V0h-9.9v27.8h-0.1c-2.2-2.7-5.8-4.3-9.4-4.3c-9.9,0-15.8,9.1-15.8,18.2
		c0,9.3,5.8,18.5,15.9,18.5c3.6,0,7.2-1.5,9.3-4.3h0.1V59.1z"/>
	<path class="st2" d="M32.6,51.5c-5.1,0-8.2-5.1-8.2-9.7c0-4.6,3.1-9.6,8.2-9.6s8.2,5,8.2,9.6C40.8,46.5,37.7,51.5,32.6,51.5"/>
	<path class="st2" d="M74.3,51.5c-5.1,0-8.2-5.1-8.2-9.7c0-4.6,3.1-9.6,8.2-9.6c5.1,0,8.2,5,8.2,9.6C82.5,46.5,79.4,51.5,74.3,51.5"
		/>
	<path class="st2" d="M115.9,51.5c-5.1,0-8.2-5.1-8.2-9.7c0-4.6,3.1-9.6,8.2-9.6c5.1,0,8.2,5,8.2,9.6
		C124,46.5,120.9,51.5,115.9,51.5"/>
</g>
</svg>
